<?xml version="1.0" standalone="yes"?>
<svg xmlns="http://www.w3.org/2000/svg" width="652" height="660">
<path style="fill:#2ebece; stroke:none;" d="M147 8.84418C138.846 10.1832 131.827 15.4554 124 16.7755C96.2122 21.462 62.339 17.5468 40.0401 39.0934C14.3217 63.9442 13.2467 101.825 15.5185 135C20.9557 214.398 50.2949 287.776 108 343.96C127.997 363.43 150.348 381.103 177 390.306C188.341 394.222 199.619 398.347 211 402.166C215.151 403.559 222.419 404.436 224.972 408.394C227.417 412.183 226 419.665 226 424L226 461L226 535C226 549.794 223.883 566.426 226.464 581C229.999 600.963 244.844 620.969 261 632.572C307.461 665.938 390.467 658.697 412.935 600C423.692 571.898 418 535.709 418 506C418 479.606 423.63 455.227 449 441.782C455.692 438.235 462.597 435.778 470 434.211C481.11 431.858 492.659 431.313 504 432.09C527.209 433.679 551.077 444.758 559.452 468C562.819 477.345 562 487.245 562 497C562 503.344 564.273 515.215 560.972 520.786C557.939 525.906 547.503 528.545 542.576 532.003C529.789 540.978 519.931 554.31 517.286 570C509.095 618.585 554.199 657.335 601 639.189C641.899 623.331 652.645 572.078 624.56 539.004C619.488 533.031 612.299 527.456 605 524.475C601.166 522.91 593.514 523.018 591.603 518.772C589.913 515.016 591 509.04 591 505C591 494.676 591.239 484.32 590.985 474C590.463 452.74 574.896 429.881 556.985 419.284C506.815 389.6 411.014 399.286 392.746 464C381.609 503.454 399.488 547.993 385.123 587C366.17 638.469 295.466 634.359 264.3 598C246.129 576.801 250.112 549.27 251.91 523C253.448 500.552 252 477.505 252 455L252 422C252 418.104 250.818 411.725 253.028 408.303C256.36 403.144 273.133 400.699 279 398.468C298.381 391.095 317.022 380.497 334.001 368.695C384.071 333.891 418.551 281.908 438.691 225C454.033 181.649 462.451 135.849 455.231 90C452.133 70.3214 444.172 46.9554 427 35.3596C405.59 20.9017 380.875 22.8867 357 17.6104C345.501 15.069 337.413 8.53394 324.91 9.76465C310.808 11.1528 291.758 10.7186 291.044 30C290.09 55.759 321.127 62.3574 341 56.6991C346.774 55.0551 351.301 50.2884 357 48.8611C362.165 47.5676 369.675 48.7245 375 49.0895C385.157 49.7858 396.582 51.7309 404.996 57.7878C420.94 69.265 423.111 94.9507 424.83 113C431.073 178.561 401.588 245.202 365.025 298C349.902 319.837 329.202 345.181 303 353.895C294.821 356.615 285.963 351.447 278 349.665C262.531 346.205 247.833 344.815 232 345.004C221.453 345.129 210.822 348.068 201 351.696C196.102 353.505 191.447 357.749 186 356.019C172.271 351.656 157.636 340.737 146 332.421C109.328 306.214 90.2588 273.754 73.1389 233C61.6232 205.587 53.0706 179.651 50.75 149.83C48.8935 125.973 43.151 96.2291 55.3519 74C67.0244 52.7334 97.9622 42.0986 121 48.6373C137.895 53.4325 162.684 66.9827 178.895 51.7863C188.499 42.7838 187.479 21.3919 176.985 13.4985C169.013 7.5025 156.425 7.29645 147 8.84418z"/>
<path style="fill:#fcf00e; stroke:none;" d="M357 188C357 179.475 360.139 164.461 355.258 157.044C349.346 148.061 334.158 151 325 151C322.02 151 316.147 149.927 314.028 152.603C310.163 157.483 314.647 167.143 312.4 172.83C309.801 179.411 301.521 182.642 297.314 188.015C294.596 191.486 294.008 198.486 288.015 197.458C283.207 196.632 283.249 191.249 280.683 188.09C276.451 182.878 268.049 179.456 265.603 172.985C262.376 164.446 268.684 152.757 262.427 145.133C255.735 136.979 249.334 143.789 241.989 144.343C239.028 144.566 235.826 142.076 235.752 138.989C235.674 135.774 238.954 133.273 242.001 133.577C249.135 134.29 261.102 137.485 265.852 143.005C273.144 151.478 264.746 164.268 270.603 172.91C280.218 187.098 290.047 188.84 301.999 177.925C304.226 175.891 307.225 173.705 308.397 170.83C310.606 165.408 309 156.808 309 151C305.016 151 294.754 149.161 292.028 152.603C287.144 158.77 294.092 166.348 294.539 172.014C294.804 175.375 291.53 179.036 288.019 178.248C284.935 177.556 282.871 174.1 283.643 171.09C286.233 160.988 289.63 143.411 282.397 133.579C277.098 126.378 264.685 121.651 256 122.019C251.144 122.225 244.688 128.272 240.604 123.566C237.763 120.292 239.862 115.105 244.015 114.377C249.406 113.431 254.613 118.802 261 117.853C264.648 117.311 268.155 113.486 271.941 114.662C276.37 116.038 277.942 124.045 282 127C283.142 124.626 283.809 122.662 283.958 119.998C284.12 117.085 285.003 111.092 282.397 109.028C273.856 102.263 248.66 120.587 255 100L263 100L264 104L284 103C283.997 98.1926 284.505 88.9183 278.546 87.0062C275.432 86.0067 272.823 89.9531 269.961 90.6829C264.743 92.0131 258.364 90.9031 253.004 91.0046C248.646 91.0872 235.504 99.2055 235.752 89.0146C235.855 84.7551 240.659 83.5954 243.91 84.9738C252.193 88.4846 270.933 92.7345 273 80C260.303 76.9771 244.901 78.3958 232 78.9606C227.128 79.174 220.919 77.854 216.285 79.5641C211.581 81.3002 206.678 87.2279 205.43 92C202.246 104.167 205 120.423 205 133C205 137.676 206.537 145.946 202.566 149.397C199.196 152.325 192.138 151 188 151C174.444 151 160.516 150.072 147 151.09C141.414 151.511 135.231 154.425 133.188 160.039C129.961 168.905 132 182.574 132 192C132 199.019 130.411 208.335 132.819 215C138.619 231.06 171.946 226 186 226C190.459 226 200.967 224.04 203.821 228.318C206.257 231.968 205 238.82 205 243C205 257.528 198.44 289.357 216 295.297C227.765 299.276 245.597 296 258 296C262.902 296 269.408 297.096 273.985 295.062C279.168 292.758 282.831 286.416 283.695 281C285.732 268.237 284 253.922 284 241C284 236.594 282.519 228.804 286.318 225.603C289.774 222.691 296.8 224 301 224C315.81 224 332.377 226.096 347 223.786C352.414 222.931 355.698 219.2 356.876 214C357.913 209.421 360.286 195.192 355.771 192.112C350.869 188.768 334.157 192 328 192C323.477 192 303.647 198.276 305.752 189.015C306.439 185.991 309.847 183.855 312.83 184.643C327.327 188.47 341.568 188 357 188z"/>


<path style="fill:#010101; stroke:none;" d="M274 82C268.091 89.0212 258.863 89.2244 250.039 87.8527C246.139 87.2462 240.512 81.1528 237.184 86.3179C235.029 89.6624 237.437 94.6454 241.566 94.4229C244.599 94.2593 246.948 91.5496 250.039 91.1335C260.725 89.6951 268.82 93.5928 277 85L277 84L274 82z"/>
<path style="fill:#010101; stroke:none;" d="M283 107L283 104C277.893 104 272.101 104.763 267.09 103.725C264.044 103.095 261.327 100.142 258.051 100.956C253.494 102.088 252.691 108.44 257.193 110.238C261.13 111.811 264.385 108.152 268 107.313C272.676 106.229 278.216 107 283 107z"/>
<path style="fill:#a59c2a; stroke:none;" d="M257 111L257 112L262 112L257 111M265 122L265 121C260.934 121 256.127 120.299 252.17 121.313C249.409 122.021 247.116 124.998 244.055 124.249C240.133 123.29 239.092 117.109 243.228 115.662C246.568 114.493 249.183 117.921 252.17 118.687C256.126 119.701 260.934 119 265 119C261.148 117.384 246.783 113.371 243.058 114.323C237.759 115.676 237.722 124.198 243.059 125.547C248.468 126.914 258.464 122 265 122M265 117C273.46 113.445 281.181 125.029 283 133L265 123L282 134C286.38 129.209 273.633 108.186 265 117z"/>
<path style="fill:#010101; stroke:none;" d="M283 133C283.061 128.972 280.952 127.502 278.34 124.576C276.233 122.216 275.779 117.838 273.401 116.029C269.463 113.033 260.237 119.394 255.015 118.941C250.866 118.582 247.493 114.246 243.228 115.337C240.161 116.122 239.44 120.241 241.032 122.682C244.197 127.536 254.104 120.817 258.996 121.019C267.918 121.388 276.079 128.13 283 133z"/>
<path style="fill:#010101; stroke:none;" d="M313 151C305.402 153.522 310.754 164.956 308.397 170.91C306.576 175.51 300.666 179.195 297.09 182.409C294.545 184.695 291.845 188.158 287.996 187.327C284.895 186.658 282.267 183.965 280 181.924C276.312 178.605 270.595 175.07 269.318 169.999C267.326 162.091 272.025 151.037 267.346 143.911C262.613 136.701 257.334 137.894 250 136.856C246.417 136.348 242.813 132.869 239.148 134.566C235.31 136.343 235.691 141.871 239.228 143.777C246.481 147.686 254.074 135.375 262.022 145.059C268.584 153.054 262.188 164.104 265.603 172.961C268.038 179.275 276.485 183.108 280.852 188.039C283.498 191.027 284.072 197.543 288.975 197.543C293.735 197.543 295.277 189.981 298.059 187.015C302.3 182.491 308.838 179.019 311.972 173.576C315.115 168.117 313 157.184 313 151z"/>
<path style="fill:#a59c2a; stroke:none;" d="M268 147L269 148L268 147M287 151C287 155.133 287.665 159.927 286.687 163.961C285.816 167.551 282.451 169.958 283.337 173.985C284.686 180.115 293.322 180.12 294.663 173.981C295.555 169.894 292.213 167.526 291.313 163.91C290.317 159.91 291 155.105 291 151L290 151C290 155.675 289.15 161.284 290.313 165.83C290.936 168.266 293.475 170.341 293.083 172.995C292.444 177.33 285.932 178.564 284.751 173.894C283.989 170.882 286.99 168.551 287.687 165.83C288.754 161.665 288.646 154.923 287 151z"/>
<path style="fill:#010101; stroke:none;" d="M288 151C288 155.411 288.757 160.614 287.687 164.91C286.854 168.255 283.112 171.014 284.623 174.772C286.471 179.373 293.047 177.453 293.535 172.995C293.872 169.911 291.017 167.737 290.313 164.91C289.243 160.614 290 155.411 290 151L288 151z"/>
<path style="fill:#010101; stroke:none;" d="M249.228 160.851C244.824 162.319 246.26 167.774 248.09 170.576C253.373 178.664 254.149 185.753 262 192.576C267.121 197.026 272.594 203.814 279.09 206.273C290.607 210.634 309.697 206.994 322 207C326.787 207.002 336.034 211.958 339.718 209.802C344.106 207.232 341.943 200.332 337.021 200.296C333.692 200.271 331.271 203.352 327.985 203.853C316.832 205.552 304.286 204 293 204C287.238 204 281.929 204.559 277.17 200.745C270.474 195.381 258.443 187.25 255.684 178.996C253.944 173.787 256.278 169.933 255.553 165.044C255.128 162.176 252.125 159.885 249.228 160.851z"/>
<path style="fill:#010101; stroke:none;" d="M357 191L357 189L316 189C312.53 182.707 302.635 186.621 306.958 192.566C310.683 197.69 316.695 191.787 321 191.147C332.503 189.437 345.365 191 357 191z"/>
</svg>
